<?xml version="1.0" encoding="UTF-8"?>
<svg version="1.1" xmlns="http://www.w3.org/2000/svg" width="204" height="204">
<path d="M0 0 C2.78637633 4.1795645 1.79562512 6.14668677 1 11 C2.1859375 11.268125 3.371875 11.53625 4.59375 11.8125 C27.37197589 17.2194287 51.15811752 29.08198834 64.4140625 49.21484375 C67.47589578 54.59190564 69.76392687 60.24041769 72 66 C72.47824219 67.19496094 72.95648438 68.38992187 73.44921875 69.62109375 C76.20629561 76.83373322 77.85807809 83.28163142 78 91 C78.02707031 92.00417969 78.05414063 93.00835937 78.08203125 94.04296875 C78.12656753 97.36699445 78.08308126 100.67674967 78 104 C77.97164062 105.175625 77.94328125 106.35125 77.9140625 107.5625 C76.95198647 129.18630406 70.16261408 149.44063584 56 166 C55.25621094 166.88171875 54.51242188 167.7634375 53.74609375 168.671875 C43.28461296 180.67983556 31.48943787 189.27516016 17 195.8125 C16.39663818 196.09037354 15.79327637 196.36824707 15.17163086 196.65454102 C4.02931648 201.46409944 -7.28773417 202.53020929 -19.3125 202.4375 C-19.99220856 202.43479095 -20.67191711 202.43208191 -21.3722229 202.42929077 C-31.78849427 202.36636599 -41.18005151 201.63481103 -51 198 C-52.0415625 197.63777344 -53.083125 197.27554688 -54.15625 196.90234375 C-76.30382597 188.48284 -95.56879066 171.4683205 -105.92724609 150.0859375 C-116.06348991 127.49234722 -118.54433866 102.74690478 -111 79 C-110.79681152 78.35675781 -110.59362305 77.71351562 -110.38427734 77.05078125 C-105.88382432 63.12937989 -99.75742092 51.19124087 -89 41 C-87.99055674 39.82051683 -86.99114129 38.63240384 -86 37.4375 C-81.78902792 32.50160108 -77.19078734 29.42319267 -71.4765625 26.44140625 C-68.80435547 24.95903222 -68.80435547 24.95903222 -65.85546875 22.5625 C-61.50413904 19.40954053 -56.78474169 17.99265271 -51.6875 16.4375 C-45.38545857 14.46209647 -39.21316485 12.37089267 -33.10473633 9.85180664 C-31.42685741 9.17275322 -29.71719308 8.57239769 -28 8 C-28.061875 7.071875 -28.12375 6.14375 -28.1875 5.1875 C-28 2 -28 2 -26.75 0.1875 C-19.97649701 -4.4088056 -7.2109811 -3.11383275 0 0 Z " fill="#FDFDFD" transform="translate(118,2)"/>
<path d="M0 0 C10.85037665 9.69191538 18.16058882 20.7947662 24 34 C24 36 24 36 21.9375 38.125 C21.47859375 38.56199219 21.0196875 38.99898437 20.546875 39.44921875 C18.80815861 41.19232583 17.26382152 43.04663726 15.6875 44.9375 C8.09469057 53.62668493 -1.8325626 59.44457784 -13.50390625 60.23828125 C-27.06864853 60.60991802 -37.4854468 57.42384597 -47.890625 48.3515625 C-49.33132868 46.97144917 -50.67664916 45.4930112 -52 44 C-52 43.34 -52 42.68 -52 42 C-70.26250229 43.37396984 -70.26250229 43.37396984 -85.82421875 52.28125 C-88.03238219 55.50913011 -87.5047244 58.214567 -87 62 C-86.67 62.66 -86.34 63.32 -86 64 C-83.66502209 64.70883258 -81.37056211 65.31462846 -79 65.875 C-64.7362724 69.49894871 -53.21120602 75.91928402 -45.30078125 88.7578125 C-41.77457046 95.18554405 -39.77892945 100.62720696 -41 108 C-41.33 108.33 -41.66 108.66 -42 109 C-47.35159751 108.6286376 -50.96675979 107.19882217 -55.5625 104.5 C-59.79117915 102.02269457 -63.10637537 100.52983605 -68 100 C-68.2137731 107.68395543 -68.01670288 114.56340812 -66 122 C-78.71381486 119.2756111 -90.29628988 113.68034333 -100 105 C-100.73605469 104.35675781 -101.47210938 103.71351563 -102.23046875 103.05078125 C-111.81095519 94.1298808 -119.93003185 81.82682096 -123 69 C-122.73873272 64.64554528 -120.91386232 62.11138832 -118.3125 58.6875 C-117.59449219 57.72585937 -116.87648438 56.76421875 -116.13671875 55.7734375 C-114.84548702 54.09743288 -113.53965784 52.43234496 -112.20703125 50.7890625 C-108.60529214 46.2891119 -106.99081922 42.65546251 -106 37 C-102.44513255 20.59291945 -93.98339852 5.39919925 -79.83984375 -4.12890625 C-54.86678576 -19.53265135 -23.07126629 -18.9738094 0 0 Z " fill="#3CA0EB" transform="translate(147,62)"/>
<path d="M0 0 C0.66 0 1.32 0 2 0 C2.68771754 1.15438301 3.34897292 2.32453444 4 3.5 C4.37125 4.1496875 4.7425 4.799375 5.125 5.46875 C7.2059855 11.48874377 5.83974115 17.51505733 4.5 23.5625 C0.2818334 44.49166113 4.17900531 67.13827065 15.6875 85.25 C28.51172505 103.18444756 45.96541577 117.41680648 68 122 C91.23241726 125.53053737 115.19391241 122.27036285 135 109 C147.85816763 99.37096373 156.06537557 88.73567469 163.92773438 74.87744141 C165.24949464 72.56315715 166.61630259 70.27770969 168 68 C171.875 69.875 171.875 69.875 173 71 C174.2658491 78.59509459 173.53721478 84.15035362 169.1875 90.5625 C167.52890823 92.77218084 165.78916207 94.89514135 164 97 C163.56155762 97.52513184 163.12311523 98.05026367 162.67138672 98.59130859 C147.61406547 116.42045796 126.55433209 130.65508251 103 134 C97.97916778 134.32750108 92.96728378 134.38916714 87.9375 134.375 C87.24780121 134.37478851 86.55810242 134.37457703 85.84750366 134.37435913 C75.38614211 134.34229191 65.89726822 133.66343059 56 130 C54.9584375 129.63777344 53.916875 129.27554688 52.84375 128.90234375 C30.69617403 120.48284 11.43120934 103.4683205 1.07275391 82.0859375 C-10.31745734 56.69726585 -11.03085838 30.52334123 -1.75 4.4375 C-1.17699606 2.95430133 -0.59819668 1.47321843 0 0 Z " fill="#D59D28" transform="translate(11,70)"/>
<path d="M0 0 C4.58003647 7.8872092 9.05529386 15.76921892 13 24 C9.56590466 24.99236215 6.13681541 25.96463056 2.67578125 26.859375 C-4.53199727 28.76805503 -10.91540435 31.18025304 -17.4765625 34.73046875 C-19.69135429 35.84472159 -21.58039877 36.52857535 -24 37 C-24.47050781 36.44570313 -24.94101562 35.89140625 -25.42578125 35.3203125 C-26.35970703 34.23363281 -26.35970703 34.23363281 -27.3125 33.125 C-27.92738281 32.40570313 -28.54226562 31.68640625 -29.17578125 30.9453125 C-31.0412324 28.80820669 -31.0412324 28.80820669 -34 27 C-44.69479207 34.08007185 -52.13384323 43.46966875 -58.30859375 54.54296875 C-59.14583984 55.75919922 -59.14583984 55.75919922 -60 57 C-60.99 57 -61.98 57 -63 57 C-66 53.66666667 -66 53.66666667 -66 51 C-66.66 51 -67.32 51 -68 51 C-67.67 50.01 -67.34 49.02 -67 48 C-67 48.66 -67 49.32 -67 50 C-66.34 50 -65.68 50 -65 50 C-64.99742188 49.3709375 -64.99484375 48.741875 -64.9921875 48.09375 C-64.55084466 38.32536189 -59.76993074 33.59634277 -53 27 C-52.175 25.989375 -51.35 24.97875 -50.5 23.9375 C-46.42673978 19.15141924 -41.98546361 16.31605101 -36.4765625 13.44140625 C-33.80771833 11.96060505 -33.80771833 11.96060505 -30.87109375 9.578125 C-26.44247419 6.37047443 -21.60760875 4.83567682 -16.4375 3.1875 C-15.51775391 2.87619141 -14.59800781 2.56488281 -13.65039062 2.24414062 C-8.97880552 0.71605204 -4.98018699 -0.42261154 0 0 Z " fill="#EEC264" transform="translate(83,15)"/>
<path d="M0 0 C21.01320568 3.82058285 41.71360255 17.27194952 55.125 33.6875 C59.1998113 39.72814532 58.63728126 45.97979054 58 53 C56.35 53.66 54.7 54.32 53 55 C52.59910156 54.26136719 52.19820313 53.52273437 51.78515625 52.76171875 C46.53836888 43.39840432 40.72517838 33.23663451 31 28 C27.04 32.455 27.04 32.455 23 37 C19.0448138 36.01120345 16.31496629 34.6233596 12.75 32.6875 C6.702227 29.50296317 0.74519557 27.6432305 -5.93261719 26.24291992 C-7.63351001 25.8799245 -9.31900298 25.44615141 -11 25 C-11.33 24.34 -11.66 23.68 -12 23 C-10.8467152 20.36860342 -9.63610581 17.85648412 -8.3125 15.3125 C-7.95994141 14.61705078 -7.60738281 13.92160156 -7.24414062 13.20507812 C-4.95648675 8.72596057 -2.52518757 4.34925083 0 0 Z " fill="#E8C26A" transform="translate(126,15)"/>
<path d="M0 0 C-5.90413014 10.72200256 -13.95304084 17.67701805 -25.625 21.875 C-37.68335864 25.04625337 -49.54758529 23.60050913 -60.42578125 17.6796875 C-65.89548461 14.31513047 -70.17372026 10.15501998 -74 5 C-74 4.67 -74 4.34 -74 4 C-61.8638491 2.53173562 -49.77045336 1.49445453 -37.5625 0.875 C-36.76204254 0.83264221 -35.96158508 0.79028442 -35.13687134 0.74664307 C-23.41964571 0.12889296 -11.73523066 -0.28896601 0 0 Z " fill="#262728" transform="translate(168,99)"/>
<path d="M0 0 C4.22281728 1.11126771 5.3002758 2.28313784 7.5625 5.9375 C8.95804678 10.12414033 9.48971076 13.57692186 8.5625 17.9375 C6.31911674 21.67837006 3.53350601 24.7592145 0.5625 27.9375 C0.05847656 28.54335937 -0.44554687 29.14921875 -0.96484375 29.7734375 C-6.98602616 36.57721391 -17.44767121 44.04764207 -26.4375 45.9375 C-25.75533432 28.61049179 -18.83310581 14.00255632 -6.4375 1.9375 C-3.4375 -0.0625 -3.4375 -0.0625 0 0 Z " fill="#2A90D0" transform="translate(153.4375,134.0625)"/>
<path d="M0 0 C2 3 2 3 1.77709961 5.85449219 C1.0096545 8.96092098 0.00535642 11.47692522 -1.43359375 14.328125 C-1.91763672 15.29234375 -2.40167969 16.2565625 -2.90039062 17.25 C-3.40763672 18.24 -3.91488281 19.23 -4.4375 20.25 C-5.19256836 21.75820313 -5.19256836 21.75820313 -5.96289062 23.296875 C-9.71868622 30.71868622 -9.71868622 30.71868622 -12 33 C-13.98413086 32.87988281 -13.98413086 32.87988281 -16 32 C-17.23266602 30.22167969 -17.23266602 30.22167969 -18.25390625 27.921875 C-18.82334961 26.67470703 -18.82334961 26.67470703 -19.40429688 25.40234375 C-19.78650391 24.52707031 -20.16871094 23.65179687 -20.5625 22.75 C-21.33237952 21.0354436 -22.10445655 19.32187195 -22.87890625 17.609375 C-23.24048828 16.80290527 -23.60207031 15.99643555 -23.97460938 15.16552734 C-25.03666178 12.82981605 -25.03666178 12.82981605 -26.75390625 10.0859375 C-28.45974731 7.23039164 -28.42564004 5.26324028 -28 2 C-22.94085252 -5.33576385 -7.11927364 -3.0742318 0 0 Z " fill="#FDC108" transform="translate(118,2)"/>
<path d="M0 0 C2.31 4.62 4.62 9.24 7 14 C-0 16 -0 16 -3.32421875 16.859375 C-10.53199727 18.76805503 -16.91540435 21.18025304 -23.4765625 24.73046875 C-25.69135429 25.84472159 -27.58039877 26.52857535 -30 27 C-31.15762119 25.78192862 -32.3006583 24.54998765 -33.4375 23.3125 C-34.07558594 22.62800781 -34.71367188 21.94351563 -35.37109375 21.23828125 C-37.16221098 18.77710578 -37.62798558 16.99183426 -38 14 C-26.0639098 6.78823935 -14.27064532 0 0 0 Z " fill="#C92B2B" transform="translate(89,25)"/>
<path d="M0 0 C13.01649674 1.54377926 24.50867653 8.05519466 36 14 C35.48118887 18.1724106 34.28848726 20.25416821 31.4375 23.3125 C30.79683594 24.00988281 30.15617187 24.70726563 29.49609375 25.42578125 C29.00238281 25.94527344 28.50867188 26.46476562 28 27 C24.16576135 26.30201966 21.15477266 24.53637074 17.75 22.6875 C11.702227 19.50296317 5.74519557 17.6432305 -0.93261719 16.24291992 C-2.63351001 15.8799245 -4.31900298 15.44615141 -6 15 C-6.33 14.34 -6.66 13.68 -7 13 C-5.92325298 10.71741367 -4.80453884 8.5643566 -3.5625 6.375 C-3.22412109 5.76398437 -2.88574219 5.15296875 -2.53710938 4.5234375 C-1.69853808 3.011647 -0.85017423 1.50529601 0 0 Z " fill="#4FAE3D" transform="translate(121,25)"/>
<path d="M0 0 C3.10039543 1.75494081 5.48825667 3.48825667 8 6 C8.69262589 10.05368414 8.91161311 14.24339167 6.984375 17.95703125 C3.904579 21.76967028 1.48890618 22.83144458 -3.3125 23.375 C-8.22547279 22.87537565 -9.58883085 21.49238747 -13 18 C-14.23740871 14.28777388 -14.55756126 10.85772118 -14 7 C-10.31376961 1.15287594 -6.88633847 -0.70030561 0 0 Z " fill="#272A2C" transform="translate(91,70)"/>
<path d="M0 0 C3.36591866 1.44253657 5.51047079 3.33264727 8 6 C6.44598576 9.69718772 4.15349262 12.077287 1.375 14.9375 C-3.43543689 20.08905325 -6.88343603 25.40056692 -10.30859375 31.54296875 C-11.14583984 32.75919922 -11.14583984 32.75919922 -12 34 C-12.99 34 -13.98 34 -15 34 C-18 30.66666667 -18 30.66666667 -18 28 C-18.66 28 -19.32 28 -20 28 C-19.505 26.515 -19.505 26.515 -19 25 C-19 25.66 -19 26.32 -19 27 C-18.34 27 -17.68 27 -17 27 C-16.99742188 26.3709375 -16.99484375 25.741875 -16.9921875 25.09375 C-16.67272264 18.02292785 -14.74824873 14.16686008 -10 9 C-9.29875 8.21625 -8.5975 7.4325 -7.875 6.625 C-5.99836352 4.99858172 -4.20600453 4.10300226 -2 3 C-1.34 2.01 -0.68 1.02 0 0 Z " fill="#E3AC2D" transform="translate(35,38)"/>
<path d="M0 0 C4.75065516 1.65659377 8.11463597 5.71002327 11.5546875 9.23828125 C14.07039773 14.87347217 13.41689525 20.66087409 13.1171875 26.73828125 C11.4671875 27.39828125 9.8171875 28.05828125 8.1171875 28.73828125 C7.7046875 27.97644531 7.2921875 27.21460937 6.8671875 26.4296875 C2.94970245 19.4254341 -1.28869678 13.49222885 -6.8828125 7.73828125 C-3.71619857 -0.51656702 -3.71619857 -0.51656702 0 0 Z " fill="#DEA32B" transform="translate(170.8828125,41.26171875)"/>
<path d="M0 0 C-1.45983225 4.62280212 -3.22726378 9.06738857 -5.09765625 13.53515625 C-6.00498504 16.01361713 -6.55095389 18.40293953 -7 21 C-10.76562908 20.47699596 -13.45253236 19.92487026 -16 17 C-16.64197238 11.40566928 -16.14042735 7.82279915 -13 3 C-9.47294268 -1.06968152 -4.97609735 -0.28708254 0 0 Z " fill="#318BE5" transform="translate(41,76)"/>
<path d="M0 0 C1.67542976 0.28604898 3.34385343 0.61781233 5 1 C5 2.65 5 4.3 5 6 C2.625 6.625 2.625 6.625 0 7 C-0.66 6.34 -1.32 5.68 -2 5 C-1.46428571 1.46428571 -1.46428571 1.46428571 0 0 Z " fill="#E4E5E6" transform="translate(91,74)"/>
<path d="M0 0 C1.44102133 2.88204267 0.65580124 4.91773419 0 8 C-0.33 8.33 -0.66 8.66 -1 9 C-0.59070014 11.05396726 -0.59070014 11.05396726 0 13 C-1.32 12.34 -2.64 11.68 -4 11 C-4.33 12.32 -4.66 13.64 -5 15 C-5.875 12.5625 -5.875 12.5625 -6 9 C-4.29484528 5.77332262 -2.21776683 2.89273934 0 0 Z " fill="#F4DA98" transform="translate(18,57)"/>
<path d="M0 0 C2.97 0.495 2.97 0.495 6 1 C6.33 2.32 6.66 3.64 7 5 C4.625 5.625 4.625 5.625 2 6 C1.34 5.34 0.68 4.68 0 4 C0 2.68 0 1.36 0 0 Z " fill="#2E4A5A" transform="translate(151,82)"/>
<path d="M0 0 C1.984375 1.17578125 1.984375 1.17578125 4 3 C4.390625 5.48046875 4.390625 5.48046875 4.25 8.1875 C4.21390625 9.08855469 4.1778125 9.98960938 4.140625 10.91796875 C4.09421875 11.60503906 4.0478125 12.29210937 4 13 C3.34 12.67 2.68 12.34 2 12 C1.3671875 9.27734375 1.3671875 9.27734375 0.875 5.9375 C0.70742187 4.83277344 0.53984375 3.72804688 0.3671875 2.58984375 C0.24601562 1.73519531 0.12484375 0.88054687 0 0 Z " fill="#293036" transform="translate(95,73)"/>
<path d="M0 0 C2.31 0.33 4.62 0.66 7 1 C7 1.33 7 1.66 7 2 C5.63875 2.4021875 5.63875 2.4021875 4.25 2.8125 C1.28528037 3.89576294 -0.6169754 4.98359457 -3 7 C-1.125 2.25 -1.125 2.25 0 0 Z " fill="#62B448" transform="translate(121,25)"/>
<path d="M0 0 C0.66 0 1.32 0 2 0 C1.6875 2.875 1.6875 2.875 1 6 C0.01 6.66 -0.98 7.32 -2 8 C-1.125 2.25 -1.125 2.25 0 0 Z " fill="#DFA63A" transform="translate(11,70)"/>
</svg>
